<svg width="102" height="196" viewBox="0 0 102 196" fill="none" xmlns="http://www.w3.org/2000/svg">
<path d="M76.4833 160.855H27.7102V183.69H33.1294V195.108H71.0641V183.69H76.4833V160.855Z" fill="url(#paint0_linear)"/>
<path d="M53.7361 0.378839V78.5915C59.575 80.9245 62.1325 83.3101 63.569 88.3925C64.8273 92.9582 65.041 97.9183 64.183 102.646C63.262 107.897 61.5692 110.699 56.9583 112.327C54.3479 113.268 51.6098 113.396 48.9562 112.702C42.5849 110.98 39.2359 105.2 39.2359 95.6129C39.2359 86.4383 41.6019 81.5697 48.1084 78.674V63.9857L47.8267 0L0 94.7164C0 94.7164 22.8909 120.196 31.2648 169.377H70.174C70.174 169.377 81.8885 112.282 101.439 98.2272L53.7361 0.378839Z" fill="url(#paint1_linear)"/>
<path d="M54.5979 4.19336V76.7723C58.3139 77.6111 61.6728 80.2252 64.0455 84.125C66.4182 88.0247 67.6419 92.9426 67.4874 97.9575C67.3329 102.972 65.8107 107.74 63.2062 111.368C60.6016 114.996 57.0931 117.235 53.338 117.665C49.5829 118.096 45.8387 116.689 42.8067 113.707C39.7746 110.726 37.6628 106.375 36.8667 101.469C36.0706 96.5632 36.6449 91.4392 38.482 87.0566C40.319 82.6741 43.2929 79.3337 46.8465 77.6612V4.19336L2.90674 93.6698C2.90674 93.6698 26.1638 121.201 33.9181 169.381H67.5207C67.5207 169.381 80.4407 110.867 98.532 97.1131L54.5979 4.19336Z" fill="#E8E8E8"/>
<path d="M70.1036 176.26H33.9237V193.465H70.1036V176.26Z" fill="#001BAD"/>
<path d="M75.2721 162.494H28.7551V183.143H75.2721V162.494Z" fill="#001BAD"/>
<path opacity="0.2" d="M75.2721 162.494H28.7551V183.143H75.2721V162.494Z" fill="black"/>
<defs>
<linearGradient id="paint0_linear" x1="52.0968" y1="195.108" x2="52.0968" y2="160.855" gradientUnits="userSpaceOnUse">
<stop stop-color="#BCB0B0" stop-opacity="0.25"/>
<stop offset="0.54" stop-color="#808080" stop-opacity="0.12"/>
<stop offset="1" stop-color="#323030" stop-opacity="0.1"/>
</linearGradient>
<linearGradient id="paint1_linear" x1="59460.4" y1="118948" x2="59460.4" y2="42464.5" gradientUnits="userSpaceOnUse">
<stop stop-color="#A4A4A4" stop-opacity="0.25"/>
<stop offset="0.54" stop-color="#808080" stop-opacity="0.12"/>
<stop offset="1" stop-color="#808080" stop-opacity="0.1"/>
</linearGradient>
</defs>
</svg>
