<svg width="150" height="80" viewBox="0 0 300 200" fill="none" xmlns="http://www.w3.org/2000/svg">
<path d="M76.4833 160.855H27.7102V183.69H33.1294V195.108H71.0641V183.69H76.4833V160.855Z" fill="url(#paint0_linear)"/>
<path d="M53.7361 0.378839V78.5915C59.575 80.9245 62.1325 83.3101 63.569 88.3925C64.8273 92.9582 65.041 97.9183 64.183 102.646C63.262 107.897 61.5692 110.699 56.9583 112.327C54.3479 113.268 51.6098 113.396 48.9562 112.702C42.5849 110.98 39.2359 105.2 39.2359 95.6129C39.2359 86.4383 41.6019 81.5697 48.1084 78.674V63.9857L47.8267 0L0 94.7164C0 94.7164 22.8909 120.196 31.2648 169.377H70.174C70.174 169.377 81.8885 112.282 101.439 98.2272L53.7361 0.378839Z" fill="url(#paint1_linear)"/>
<path d="M54.5979 4.19336V76.7723C58.3139 77.6111 61.6728 80.2252 64.0455 84.125C66.4182 88.0247 67.6419 92.9426 67.4874 97.9575C67.3329 102.972 65.8108 107.74 63.2062 111.368C60.6016 114.996 57.0931 117.235 53.338 117.665C49.5829 118.096 45.8387 116.689 42.8067 113.707C39.7746 110.726 37.6628 106.375 36.8667 101.469C36.0706 96.5632 36.6449 91.4392 38.482 87.0566C40.319 82.6741 43.2929 79.3337 46.8465 77.6612V4.19336L2.90674 93.6698C2.90674 93.6698 26.1638 121.201 33.9181 169.381H67.5207C67.5207 169.381 80.4407 110.867 98.532 97.1131L54.5979 4.19336Z" fill="#E8E8E8"/>
<path d="M70.1036 176.26H33.9237V193.465H70.1036V176.26Z" fill="#001BAD"/>
<path d="M75.2721 162.494H28.7551V183.143H75.2721V162.494Z" fill="#001BAD"/>
<path opacity="0.2" d="M75.2721 162.494H28.7551V183.143H75.2721V162.494Z" fill="black"/>
<path d="M122.247 117.888V144.462H116.917V127.177L109.798 144.462H105.762L98.6046 127.177V144.462H93.2745V117.888H99.328L107.78 137.647L116.232 117.888H122.247ZM126.146 133.84C126.146 131.708 126.565 129.817 127.403 128.167C128.266 126.517 129.421 125.248 130.867 124.36C132.339 123.472 133.977 123.028 135.779 123.028C137.352 123.028 138.723 123.345 139.89 123.979C141.083 124.614 142.035 125.413 142.746 126.378V123.37H148.114V144.462H142.746V141.378C142.06 142.368 141.109 143.193 139.89 143.853C138.697 144.487 137.314 144.805 135.741 144.805C133.964 144.805 132.339 144.348 130.867 143.434C129.421 142.52 128.266 141.239 127.403 139.589C126.565 137.914 126.146 135.997 126.146 133.84ZM142.746 133.916C142.746 132.622 142.492 131.518 141.984 130.604C141.477 129.665 140.791 128.954 139.928 128.472C139.065 127.964 138.139 127.71 137.149 127.71C136.159 127.71 135.246 127.952 134.408 128.434C133.57 128.916 132.885 129.627 132.352 130.566C131.844 131.48 131.591 132.571 131.591 133.84C131.591 135.109 131.844 136.226 132.352 137.19C132.885 138.129 133.57 138.853 134.408 139.36C135.271 139.868 136.185 140.122 137.149 140.122C138.139 140.122 139.065 139.881 139.928 139.398C140.791 138.891 141.477 138.18 141.984 137.266C142.492 136.327 142.746 135.211 142.746 133.916ZM158.65 126.644C159.335 125.528 160.223 124.652 161.315 124.017C162.432 123.383 163.701 123.066 165.122 123.066V128.662H163.713C162.038 128.662 160.769 129.056 159.906 129.842C159.069 130.629 158.65 132 158.65 133.954V144.462H153.32V123.37H158.65V126.644ZM181.2 144.462L174.042 135.477V144.462H168.712V116.289H174.042V132.317L181.123 123.37H188.053L178.763 133.954L188.129 144.462H181.2ZM189.575 133.84C189.575 131.708 189.994 129.817 190.831 128.167C191.694 126.517 192.862 125.248 194.334 124.36C195.806 123.472 197.443 123.028 199.245 123.028C200.616 123.028 201.923 123.332 203.167 123.941C204.41 124.525 205.4 125.312 206.136 126.302V116.289H211.542V144.462H206.136V141.34C205.476 142.381 204.55 143.218 203.357 143.853C202.164 144.487 200.781 144.805 199.207 144.805C197.43 144.805 195.806 144.348 194.334 143.434C192.862 142.52 191.694 141.239 190.831 139.589C189.994 137.914 189.575 135.997 189.575 133.84ZM206.174 133.916C206.174 132.622 205.92 131.518 205.413 130.604C204.905 129.665 204.22 128.954 203.357 128.472C202.494 127.964 201.568 127.71 200.578 127.71C199.588 127.71 198.674 127.952 197.836 128.434C196.999 128.916 196.314 129.627 195.781 130.566C195.273 131.48 195.019 132.571 195.019 133.84C195.019 135.109 195.273 136.226 195.781 137.19C196.314 138.129 196.999 138.853 197.836 139.36C198.699 139.868 199.613 140.122 200.578 140.122C201.568 140.122 202.494 139.881 203.357 139.398C204.22 138.891 204.905 138.18 205.413 137.266C205.92 136.327 206.174 135.211 206.174 133.916ZM226.114 144.805C224.083 144.805 222.256 144.361 220.631 143.472C219.007 142.558 217.725 141.277 216.786 139.627C215.872 137.977 215.416 136.074 215.416 133.916C215.416 131.759 215.885 129.855 216.824 128.205C217.789 126.556 219.096 125.286 220.746 124.398C222.395 123.484 224.236 123.028 226.266 123.028C228.297 123.028 230.137 123.484 231.787 124.398C233.436 125.286 234.731 126.556 235.67 128.205C236.634 129.855 237.117 131.759 237.117 133.916C237.117 136.074 236.622 137.977 235.632 139.627C234.667 141.277 233.347 142.558 231.672 143.472C230.023 144.361 228.17 144.805 226.114 144.805ZM226.114 140.16C227.078 140.16 227.979 139.931 228.817 139.475C229.68 138.992 230.365 138.282 230.873 137.343C231.38 136.403 231.634 135.261 231.634 133.916C231.634 131.911 231.101 130.375 230.035 129.309C228.995 128.218 227.713 127.672 226.19 127.672C224.667 127.672 223.385 128.218 222.345 129.309C221.329 130.375 220.822 131.911 220.822 133.916C220.822 135.921 221.317 137.469 222.307 138.561C223.322 139.627 224.591 140.16 226.114 140.16ZM270.266 123.37L264.098 144.462H258.349L254.504 129.728L250.659 144.462H244.872L238.666 123.37H244.072L247.803 139.437L251.839 123.37H257.473L261.433 139.398L265.164 123.37H270.266ZM284.838 123.066C287.35 123.066 289.381 123.865 290.929 125.464C292.477 127.038 293.252 129.246 293.252 132.089V144.462H287.922V132.812C287.922 131.137 287.503 129.855 286.665 128.967C285.828 128.053 284.685 127.596 283.239 127.596C281.767 127.596 280.599 128.053 279.736 128.967C278.898 129.855 278.48 131.137 278.48 132.812V144.462H273.15V123.37H278.48V125.997C279.19 125.083 280.091 124.373 281.183 123.865C282.3 123.332 283.518 123.066 284.838 123.066ZM98.6046 160.19V166.853H107.552V171.079H98.6046V178.122H108.694V182.462H93.2745V155.85H108.694V160.19H98.6046ZM112.167 171.84C112.167 169.708 112.586 167.817 113.423 166.167C114.286 164.517 115.454 163.248 116.926 162.36C118.398 161.472 120.035 161.028 121.837 161.028C123.208 161.028 124.515 161.332 125.759 161.941C127.002 162.525 127.992 163.312 128.728 164.302V154.289H134.134V182.462H128.728V179.34C128.068 180.381 127.142 181.218 125.949 181.853C124.756 182.487 123.373 182.805 121.799 182.805C120.022 182.805 118.398 182.348 116.926 181.434C115.454 180.52 114.286 179.239 113.423 177.589C112.586 175.914 112.167 173.997 112.167 171.84ZM128.766 171.916C128.766 170.622 128.512 169.518 128.005 168.604C127.497 167.665 126.812 166.954 125.949 166.472C125.086 165.964 124.16 165.71 123.17 165.71C122.18 165.71 121.266 165.952 120.428 166.434C119.591 166.916 118.906 167.627 118.373 168.566C117.865 169.48 117.611 170.571 117.611 171.84C117.611 173.109 117.865 174.226 118.373 175.19C118.906 176.129 119.591 176.853 120.428 177.36C121.291 177.868 122.205 178.122 123.17 178.122C124.16 178.122 125.086 177.881 125.949 177.398C126.812 176.891 127.497 176.18 128.005 175.266C128.512 174.327 128.766 173.211 128.766 171.916ZM142.043 158.857C141.104 158.857 140.317 158.566 139.683 157.982C139.074 157.373 138.769 156.624 138.769 155.736C138.769 154.847 139.074 154.111 139.683 153.527C140.317 152.918 141.104 152.614 142.043 152.614C142.982 152.614 143.756 152.918 144.366 153.527C145 154.111 145.317 154.847 145.317 155.736C145.317 156.624 145 157.373 144.366 157.982C143.756 158.566 142.982 158.857 142.043 158.857ZM144.67 161.37V182.462H139.34V161.37H144.67ZM156.142 165.748V175.952C156.142 176.662 156.307 177.183 156.637 177.513C156.992 177.817 157.576 177.97 158.388 177.97H160.863V182.462H157.513C153.02 182.462 150.774 180.279 150.774 175.914V165.748H148.261V161.37H150.774V156.154H156.142V161.37H160.863V165.748H156.142ZM174.062 182.805C172.032 182.805 170.204 182.361 168.58 181.472C166.956 180.558 165.674 179.277 164.735 177.627C163.821 175.977 163.364 174.074 163.364 171.916C163.364 169.759 163.834 167.855 164.773 166.205C165.737 164.556 167.044 163.286 168.694 162.398C170.344 161.484 172.184 161.028 174.215 161.028C176.245 161.028 178.085 161.484 179.735 162.398C181.385 163.286 182.679 164.556 183.618 166.205C184.583 167.855 185.065 169.759 185.065 171.916C185.065 174.074 184.57 175.977 183.58 177.627C182.616 179.277 181.296 180.558 179.621 181.472C177.971 182.361 176.118 182.805 174.062 182.805ZM174.062 178.16C175.027 178.16 175.928 177.931 176.765 177.475C177.628 176.992 178.314 176.282 178.821 175.343C179.329 174.403 179.583 173.261 179.583 171.916C179.583 169.911 179.05 168.375 177.984 167.309C176.943 166.218 175.661 165.672 174.138 165.672C172.616 165.672 171.334 166.218 170.293 167.309C169.278 168.375 168.77 169.911 168.77 171.916C168.77 173.921 169.265 175.469 170.255 176.561C171.27 177.627 172.539 178.16 174.062 178.16ZM194.305 164.644C194.99 163.528 195.879 162.652 196.97 162.017C198.087 161.383 199.356 161.066 200.777 161.066V166.662H199.369C197.693 166.662 196.424 167.056 195.561 167.842C194.724 168.629 194.305 170 194.305 171.954V182.462H188.975V161.37H194.305V164.644Z" fill="#000D52"/>
<defs>
<linearGradient id="paint0_linear" x1="52.0968" y1="195.108" x2="52.0968" y2="160.855" gradientUnits="userSpaceOnUse">
<stop stop-color="#BCB0B0" stop-opacity="0.25"/>
<stop offset="0.54" stop-color="#808080" stop-opacity="0.12"/>
<stop offset="1" stop-color="#323030" stop-opacity="0.1"/>
</linearGradient>
<linearGradient id="paint1_linear" x1="59460.4" y1="118948" x2="59460.4" y2="42464.5" gradientUnits="userSpaceOnUse">
<stop stop-color="#A4A4A4" stop-opacity="0.25"/>
<stop offset="0.54" stop-color="#808080" stop-opacity="0.12"/>
<stop offset="1" stop-color="#808080" stop-opacity="0.1"/>
</linearGradient>
</defs>
</svg>
